<?xml version="1.0" standalone="no"?>
<!DOCTYPE svg PUBLIC "-//W3C//DTD SVG 20010904//EN"
 "http://www.w3.org/TR/2001/REC-SVG-20010904/DTD/svg10.dtd">
<svg version="1.0" xmlns="http://www.w3.org/2000/svg"
 width="1041.000000pt" height="1280.000000pt" viewBox="0 0 1041.000000 1280.000000"
 preserveAspectRatio="xMidYMid meet">
<metadata>
Created by potrace 1.15, written by Peter Selinger 2001-2017
</metadata>
<g transform="translate(0.000000,1280.000000) scale(0.100000,-0.100000)"
fill="#000000" stroke="none">
<path d="M5209 12785 c-15 -8 -50 -55 -82 -109 -157 -262 -481 -709 -806
-1111 -291 -359 -509 -616 -1201 -1415 -990 -1143 -1318 -1537 -1737 -2085
-655 -858 -1065 -1560 -1257 -2150 -199 -617 -157 -1134 125 -1535 73 -104
235 -268 350 -355 208 -157 494 -301 722 -365 390 -109 754 -157 1121 -147
316 8 541 45 804 133 427 141 762 351 1098 688 233 235 408 464 574 753 l50
87 0 -98 c0 -224 -44 -1503 -70 -2026 -48 -962 -113 -1665 -179 -1925 -24 -91
-41 -111 -171 -197 -250 -166 -631 -278 -943 -278 -56 0 -68 -3 -91 -26 -26
-27 -26 -28 -25 -173 0 -80 4 -204 8 -275 6 -124 7 -129 35 -153 l28 -24 1726
7 c950 4 1738 10 1751 14 14 3 33 18 44 32 18 24 21 51 28 275 11 344 25 323
-226 342 -351 27 -692 154 -931 347 -47 38 -62 79 -93 249 -84 453 -164 1685
-211 3225 -5 190 -12 403 -15 474 -2 71 -1 125 4 120 4 -5 40 -55 79 -111 282
-400 666 -780 1052 -1038 589 -393 1192 -535 1769 -415 138 29 217 54 416 133
438 173 764 374 1010 621 225 225 353 458 416 756 30 136 32 429 6 585 -120
706 -584 1511 -1541 2675 -224 272 -528 625 -956 1110 -609 691 -799 907 -956
1090 -798 930 -1271 1586 -1541 2135 -83 170 -115 198 -184 160z"/>
</g>
</svg>
