<svg width="100" height="100" viewBox="0 0 100 100" fill="none" xmlns="http://www.w3.org/2000/svg">
<rect width="100" height="100" rx="50" fill="#E5E7EB"/>
<path d="M66.6666 68.75V64.5833C66.6666 62.3732 65.7887 60.2536 64.2259 58.6908C62.6631 57.128 60.5434 56.25 58.3333 56.25H41.6666C39.4565 56.25 37.3369 57.128 35.7741 58.6908C34.2113 60.2536 33.3333 62.3732 33.3333 64.5833V68.75" stroke="#111827" stroke-width="2.56" stroke-linecap="round" stroke-linejoin="round"/>
<path d="M50 47.9167C54.6024 47.9167 58.3334 44.1857 58.3334 39.5833C58.3334 34.981 54.6024 31.25 50 31.25C45.3976 31.25 41.6667 34.981 41.6667 39.5833C41.6667 44.1857 45.3976 47.9167 50 47.9167Z" stroke="#111827" stroke-width="2.56" stroke-linecap="round" stroke-linejoin="round"/>
</svg>
